<svg xmlns="http://www.w3.org/2000/svg" width="20" height="23" viewBox="0 0 20 23">
    <g fill="#7D7D7D" fill-rule="nonzero" opacity=".534">
        <path d="M6.978 6.579a.591.591 0 0 0-.593.589v12.077c0 .326.266.59.593.59a.591.591 0 0 0 .593-.59V7.168a.591.591 0 0 0-.593-.59zM10.022 6.579a.591.591 0 0 0-.593.589v12.077c0 .326.266.59.593.59a.591.591 0 0 0 .593-.59V7.168a.591.591 0 0 0-.593-.59zM12.952 6.579a.591.591 0 0 0-.593.589v12.077c0 .326.265.59.593.59a.591.591 0 0 0 .593-.59V7.168a.591.591 0 0 0-.593-.59z"/>
        <path d="M19.288 3.082h-4.191V.09H5.027v2.993H.577a.534.534 0 0 0-.535.533c0 .294.24.532.535.532h1.373l1.584 16.72a1.971 1.971 0 0 0 1.974 1.936h9.026a1.971 1.971 0 0 0 1.974-1.934l1.663-16.722h1.116a.534.534 0 0 0 .535-.532.534.534 0 0 0-.535-.533zM6.098 1.154h7.927v1.928H6.097V1.154zm9.343 19.634l-.003.052a.901.901 0 0 1-.903.898H5.51a.902.902 0 0 1-.903-.898L3.026 4.147h14.07l-1.655 16.64z"/>
    </g>
</svg>
